<svg width="416" height="92" viewBox="0 0 416 92" fill="none" xmlns="http://www.w3.org/2000/svg">
<g clip-path="url(#clip0_1802_7680)">
<mask id="mask0_1802_7680" style="mask-type:luminance" maskUnits="userSpaceOnUse" x="0" y="0" width="416" height="92">
<path d="M415.799 0H0V91.6802H415.799V0Z" fill="white"/>
</mask>
<g mask="url(#mask0_1802_7680)">
<path d="M25.8968 25.0202H57.0506L55.3414 0H0V91.6802H25.8968V62.0968H51.2757V37.0765H25.8968V25.0202Z" fill="white"/>
<path d="M143.52 45.9697C143.52 21.2089 123.89 1.29639 99.6766 1.29639C75.4631 1.29639 55.9629 21.2089 55.9629 45.9697C55.9629 70.7307 75.5926 90.6431 99.6766 90.6431C123.761 90.6431 143.52 70.7307 143.52 45.9697ZM107.679 64.3006C107.679 68.7602 104.416 72.027 100.091 72.027C95.7662 72.027 92.3737 68.7602 92.3737 64.3006V27.613C92.3737 23.1534 95.6368 19.8866 99.9615 19.8866C104.286 19.8866 107.679 23.1534 107.679 27.613V64.3006Z" fill="white"/>
<path d="M210.644 0H182.261L171.255 19.9125L160.664 0H131.219L157.012 44.414L129.795 91.6802H158.307L170.997 68.5009L183.686 91.6802H213.001L185.395 44.1288L210.644 0Z" fill="white"/>
<path d="M367.786 0H257.362C229.497 0 209.35 19.2643 209.35 45.8401C209.35 72.416 229.497 91.6802 257.362 91.6802H367.786C395.651 91.6802 415.799 72.416 415.799 45.8401C415.799 19.2643 395.651 0 367.786 0ZM258.942 74.8013C242.86 74.8013 233.433 63.3931 233.433 45.9698C233.433 28.5463 242.989 16.8789 258.942 16.8789C274.894 16.8789 284.45 28.2871 284.45 45.9698C284.45 63.6524 275.024 74.8013 258.942 74.8013ZM338.626 74.1272H324.487L304.856 40.862H304.469V74.1272H291.52V17.5271H305.66L325.29 50.533H325.677V17.5271H338.626V74.1272ZM385.862 74.1272H348.311V17.5271H385.215L386.535 29.1945H361.804V39.799H383.919V51.4665H361.804V62.4597H387.182L385.862 74.1272Z" fill="white"/>
<path d="M258.942 28.9351C252.519 28.9351 248.998 33.5243 248.998 42.0285V49.6253C248.998 58.1297 252.519 62.7188 258.942 62.7188C265.365 62.7188 268.886 58.1297 268.886 49.6253V42.0285C268.886 33.5243 265.365 28.9351 258.942 28.9351Z" fill="white"/>
</g>
</g>
<defs>
<clipPath id="clip0_1802_7680">
<rect width="416" height="92" fill="white"/>
</clipPath>
</defs>
</svg>
