<?xml version="1.0" encoding="UTF-8"?>
<svg xmlns="http://www.w3.org/2000/svg" width="530" height="110" viewBox="0 0 530 110" fill="none">
  <title>NBA League Pass clean vectorized logo</title>
  <g fill-rule="evenodd" clip-rule="evenodd">
    <path fill="#7A7A7A" d="M22.500 30.500 L20.750 31.750 L18.750 36.750 L20.500 39.250 L22.000 44.750 L21.750 46.250 L22.250 47.000 L22.500 49.750 L23.000 50.750 L23.250 55.000 L24.250 57.500 L25.750 59.750 L26.500 62.250 L27.250 67.750 L29.000 70.500 L28.250 74.750 L29.250 78.250 L29.000 79.000 L30.000 81.750 L30.000 83.500 L28.750 85.250 L29.250 85.250 L32.250 83.250 L33.750 79.750 L33.500 50.750 L33.500 51.250 L31.500 53.250 L29.750 54.000 L27.000 54.000 L25.000 53.000 L23.250 51.000 L22.750 49.750 L22.750 46.500 L23.750 44.750 L25.250 43.250 L27.000 42.500 L24.500 37.750 L23.000 30.500 Z M21.750 9.000 L24.000 11.000 L24.250 12.500 L23.500 14.500 L23.500 16.000 L20.500 19.750 L20.750 20.500 L24.750 23.250 L26.250 25.000 L27.250 27.500 L28.000 35.000 L30.000 39.750 L30.500 42.750 L31.500 43.000 L33.750 45.500 L33.250 13.250 L31.500 10.500 L28.750 9.000 Z M18.500 8.750 L6.500 9.000 L4.750 9.750 L2.750 11.750 L2.000 13.500 L2.000 80.750 L2.750 82.500 L4.500 84.250 L6.750 85.250 L26.750 85.250 L26.000 84.250 L26.500 78.250 L26.000 77.500 L26.000 75.750 L24.000 72.000 L24.250 70.250 L23.500 68.750 L19.750 66.250 L15.000 61.750 L12.500 58.500 L9.000 52.750 L7.250 52.500 L6.750 52.000 L6.250 50.000 L3.750 45.000 L4.000 40.500 L4.500 39.250 L5.500 38.250 L5.500 37.500 L3.250 37.500 L2.500 36.750 L2.250 35.750 L2.500 32.750 L7.500 22.000 L10.000 19.750 L13.000 19.500 L13.500 19.000 L15.750 18.750 L16.250 15.750 L15.750 15.250 L16.000 13.250 L16.500 13.000 L16.750 10.500 Z"/>
    <path fill="#F0F0F0" d="M311.000 21.250 L311.000 83.750 L311.750 86.500 L313.750 89.500 L316.500 91.250 L318.750 91.750 L321.500 91.750 L324.500 91.000 L327.000 89.500 L329.000 87.250 L329.750 87.250 L330.000 89.250 L330.750 91.000 L340.750 91.000 L340.750 21.250 L328.750 21.500 L328.500 80.750 L326.000 81.250 L324.000 80.750 L323.250 80.000 L322.750 78.250 L322.750 21.250 Z M358.500 20.500 L355.000 21.000 L353.000 21.750 L351.000 23.000 L348.250 26.250 L347.000 29.250 L346.250 33.500 L346.250 78.750 L347.000 83.000 L348.250 86.000 L349.250 87.500 L351.250 89.500 L353.500 90.750 L356.250 91.500 L363.500 91.750 L367.000 91.250 L370.500 89.750 L372.750 87.750 L374.500 84.750 L375.750 80.500 L376.000 77.750 L376.000 64.000 L375.500 63.750 L364.250 65.000 L364.000 78.750 L363.500 80.000 L362.750 80.750 L360.000 81.000 L358.750 80.000 L358.250 79.000 L358.000 77.250 L358.250 59.500 L376.000 59.250 L376.000 34.500 L375.750 31.750 L374.500 27.500 L372.750 24.500 L371.250 23.000 L369.250 21.750 L367.250 21.000 L363.500 20.500 Z M360.250 31.250 L362.750 31.500 L363.750 32.750 L364.000 33.750 L364.250 51.000 L363.750 51.500 L358.000 51.250 L358.000 35.000 L358.250 33.250 L358.750 32.250 Z M306.750 20.500 L305.000 20.500 L303.000 21.000 L302.000 21.500 L299.750 23.500 L296.750 21.500 L294.000 20.750 L286.750 20.500 L283.000 21.000 L281.000 21.750 L279.000 23.000 L276.750 25.500 L275.250 28.750 L274.250 34.500 L274.250 65.250 L274.750 69.250 L275.750 72.250 L276.750 74.250 L279.250 76.750 L276.500 79.500 L275.000 82.750 L275.250 87.250 L276.250 89.250 L278.750 91.750 L277.500 92.500 L274.750 95.500 L273.500 98.000 L273.250 100.750 L273.500 102.500 L274.750 105.000 L276.750 107.000 L279.000 108.250 L280.500 108.500 L281.250 109.000 L285.500 109.750 L293.500 109.750 L297.000 109.000 L300.000 107.750 L301.750 106.500 L304.250 103.750 L305.500 101.250 L306.250 97.750 L306.250 94.250 L305.500 90.500 L304.000 87.750 L301.500 85.500 L298.250 84.000 L297.250 84.000 L296.500 83.500 L292.750 83.250 L291.250 82.750 L289.250 82.750 L285.750 82.000 L284.000 81.000 L283.500 80.250 L283.500 79.250 L284.000 78.750 L287.250 79.250 L294.000 79.000 L295.000 78.500 L296.750 78.250 L299.750 76.500 L301.000 75.250 L302.750 72.250 L303.500 70.000 L304.250 65.250 L304.250 34.250 L304.000 31.500 L304.750 31.500 L306.500 30.750 L307.250 23.250 L307.250 21.000 Z M282.250 95.500 L283.000 93.750 L287.500 94.750 L290.750 94.750 L293.750 95.250 L296.000 96.750 L296.000 98.750 L295.250 100.000 L293.750 101.000 L291.500 101.500 L288.750 101.500 L286.000 101.000 L284.250 100.250 L282.500 98.500 Z M288.500 31.250 L291.000 31.500 L291.500 32.000 L292.250 34.000 L292.250 65.750 L291.750 67.250 L290.750 68.250 L288.000 68.250 L287.000 67.500 L286.250 65.500 L286.000 63.000 L286.000 36.500 L286.500 33.000 L287.750 31.500 Z M216.500 20.500 L212.750 21.000 L210.750 21.750 L208.750 23.000 L207.000 24.750 L205.750 26.750 L204.500 30.500 L204.000 34.750 L204.000 77.500 L204.500 81.750 L205.750 85.500 L207.000 87.500 L208.500 89.000 L211.500 90.750 L214.000 91.500 L221.250 91.750 L224.750 91.250 L228.000 90.000 L230.750 87.500 L232.000 85.500 L233.000 82.750 L233.750 78.750 L233.500 63.750 L222.250 63.750 L221.750 79.000 L220.500 80.750 L218.000 81.000 L216.500 80.000 L215.750 77.500 L215.750 59.750 L216.250 59.250 L233.750 59.250 L233.750 33.250 L233.000 29.500 L231.750 26.250 L230.750 24.750 L228.000 22.250 L225.000 21.000 L223.500 20.750 Z M218.000 31.250 L220.500 31.500 L221.750 33.250 L222.000 34.750 L221.750 51.500 L215.750 51.250 L215.750 34.750 L216.500 32.250 Z M510.250 20.250 L505.750 21.000 L504.500 21.500 L501.250 23.500 L499.500 25.500 L498.000 28.000 L496.750 32.250 L496.500 39.750 L496.750 42.000 L498.000 46.750 L500.000 51.250 L503.750 57.000 L509.500 64.000 L511.500 67.000 L513.000 70.500 L513.500 71.000 L514.250 73.750 L514.250 79.250 L513.500 80.750 L512.500 81.500 L510.250 81.500 L508.750 80.250 L508.250 78.000 L508.250 68.250 L496.500 68.250 L496.500 79.750 L496.750 81.750 L498.000 85.500 L499.250 87.500 L501.250 89.500 L503.500 90.750 L506.250 91.500 L513.250 91.750 L516.250 91.250 L519.500 90.000 L521.000 89.000 L523.000 87.000 L525.000 83.500 L526.000 80.000 L526.250 71.500 L524.750 65.500 L524.250 65.000 L523.500 62.750 L521.750 59.500 L518.250 54.500 L513.750 49.250 L510.000 43.500 L508.500 39.000 L508.500 33.250 L509.000 32.000 L510.250 30.750 L511.250 30.500 L513.250 31.000 L514.000 32.000 L514.500 35.000 L514.500 44.500 L526.250 44.500 L526.250 33.500 L526.000 31.250 L524.750 26.750 L523.500 24.750 L521.500 22.750 L518.000 21.000 L512.750 20.250 Z M475.750 20.250 L471.250 21.000 L470.750 21.500 L470.000 21.500 L466.750 23.500 L465.000 25.500 L463.000 29.500 L462.250 32.500 L462.000 39.750 L462.250 42.000 L462.750 43.000 L462.750 44.250 L463.500 46.750 L464.000 47.250 L464.000 48.000 L465.500 51.250 L469.250 57.000 L475.750 65.000 L479.000 71.000 L479.750 73.750 L479.750 79.250 L479.000 80.750 L478.000 81.500 L475.750 81.500 L474.250 80.250 L473.750 78.000 L473.750 68.250 L462.000 68.250 L462.000 79.750 L462.750 83.500 L463.500 85.500 L464.750 87.500 L466.750 89.500 L469.000 90.750 L471.750 91.500 L478.750 91.750 L481.750 91.250 L485.000 90.000 L486.500 89.000 L488.500 87.000 L490.250 84.250 L491.500 80.250 L491.750 71.500 L490.250 65.500 L489.750 65.000 L489.750 64.250 L487.000 59.000 L484.000 54.750 L479.250 49.250 L475.500 43.500 L474.000 39.000 L474.000 33.250 L474.500 32.000 L475.750 30.750 L476.750 30.500 L478.750 31.000 L479.500 32.000 L480.000 35.000 L480.000 44.500 L491.750 44.500 L491.750 33.250 L491.000 28.750 L490.250 26.750 L489.000 24.750 L487.000 22.750 L483.500 21.000 L478.250 20.250 Z M435.750 21.000 L432.250 22.750 L430.250 24.750 L429.000 26.750 L428.250 28.750 L427.500 32.250 L427.250 36.250 L427.500 46.000 L439.000 45.750 L439.000 34.000 L439.750 32.000 L440.500 31.250 L443.250 31.000 L444.500 32.250 L445.000 34.000 L444.750 51.250 L439.500 51.000 L434.250 52.250 L431.500 54.000 L430.000 55.500 L428.250 58.500 L427.000 64.000 L427.000 81.250 L427.750 85.500 L428.500 87.250 L430.750 90.000 L434.000 91.500 L439.250 91.500 L442.250 90.250 L444.250 88.750 L445.750 87.000 L446.750 90.750 L457.000 90.750 L457.000 35.000 L456.000 29.000 L455.250 27.000 L453.750 24.500 L452.250 23.000 L450.250 21.750 L447.250 20.750 L443.500 20.250 L440.750 20.250 Z M445.000 59.000 L444.750 80.750 L442.000 81.250 L440.500 80.750 L439.500 79.750 L439.000 78.500 L439.000 62.750 L439.750 61.000 L441.250 59.500 L442.500 59.000 Z M248.000 21.000 L247.250 21.500 L246.500 21.500 L244.000 23.000 L241.500 26.000 L240.750 27.500 L240.750 28.250 L240.250 28.750 L240.000 31.250 L239.500 32.500 L239.500 46.000 L251.000 46.000 L251.000 35.500 L251.500 32.500 L253.000 31.000 L255.250 31.000 L256.500 32.000 L257.000 33.250 L257.250 36.250 L257.000 51.250 L251.500 51.000 L248.500 51.500 L244.250 53.500 L242.750 54.750 L241.250 56.750 L239.500 61.000 L239.250 63.000 L239.250 82.250 L239.500 84.250 L240.250 86.500 L241.500 88.750 L242.750 90.000 L246.000 91.500 L252.250 91.250 L254.750 90.000 L257.250 87.500 L258.250 87.250 L258.250 88.500 L259.000 91.000 L269.000 91.000 L269.000 33.750 L268.500 32.250 L268.250 29.500 L267.000 26.250 L266.000 24.750 L264.000 22.750 L261.750 21.500 L261.000 21.500 L260.500 21.000 L255.500 20.250 L253.000 20.250 Z M256.750 58.750 L257.250 59.250 L257.250 80.250 L256.750 80.750 L254.250 81.250 L252.500 80.750 L251.500 79.750 L251.000 77.250 L251.000 63.750 L251.500 61.500 L253.000 59.750 L254.500 59.000 Z M5.500 7.250 L5.000 7.750 L4.000 8.000 L1.750 10.000 L1.000 11.000 L0.000 13.500 L0.000 80.750 L1.000 83.500 L2.750 85.500 L5.250 87.000 L7.000 87.500 L28.500 87.500 L30.250 87.000 L32.500 85.750 L34.000 84.250 L35.500 81.000 L35.500 13.250 L34.750 11.250 L33.000 9.000 L32.000 8.250 L29.000 7.000 L6.500 7.000 Z M22.500 30.250 L23.250 30.500 L24.750 37.750 L27.250 42.500 L25.250 43.500 L24.000 44.750 L23.000 46.500 L23.000 49.750 L23.500 51.000 L25.000 52.750 L27.000 53.750 L29.750 53.750 L31.500 53.000 L33.250 51.250 L33.500 50.500 L34.000 51.000 L34.000 79.750 L33.500 81.500 L32.500 83.250 L31.500 84.250 L29.250 85.500 L28.500 85.250 L29.750 83.500 L29.750 81.750 L29.000 80.000 L28.750 77.250 L28.250 76.500 L28.000 74.750 L28.750 70.500 L27.000 67.750 L26.250 62.250 L25.500 59.750 L24.000 57.500 L23.000 55.000 L22.750 50.750 L22.250 49.750 L22.000 47.000 L21.500 46.250 L21.750 44.750 L20.250 39.250 L19.500 37.750 L18.500 36.750 L20.500 31.750 Z M21.500 9.000 L28.750 8.750 L31.500 10.250 L32.500 11.250 L33.500 13.250 L33.750 14.250 L33.500 45.750 L33.000 45.250 L33.000 44.750 L31.500 43.250 L30.250 42.750 L30.000 42.250 L29.750 39.750 L29.000 37.750 L28.250 36.750 L27.250 32.500 L27.000 27.500 L26.000 25.000 L24.750 23.500 L23.000 22.500 L22.250 21.500 L20.250 20.250 L20.250 19.750 L23.250 16.000 L23.500 15.250 L23.250 14.500 L24.000 12.500 L23.750 11.000 Z M18.000 8.500 L18.750 8.750 L17.250 10.000 L16.750 11.500 L16.750 13.000 L16.000 13.500 L16.000 15.250 L16.500 15.750 L16.000 18.750 L15.250 19.250 L13.500 19.250 L13.000 19.750 L10.000 20.000 L7.750 22.000 L6.000 25.250 L5.000 28.250 L4.250 29.250 L2.750 32.750 L2.500 35.750 L2.750 36.750 L3.250 37.250 L5.750 37.500 L5.750 38.250 L4.750 39.250 L4.250 40.500 L4.000 45.000 L4.250 46.000 L6.500 50.000 L7.250 52.250 L8.750 52.250 L9.250 52.750 L10.250 54.750 L15.250 61.750 L19.750 66.000 L23.500 68.500 L24.500 70.250 L24.250 72.000 L26.250 75.750 L26.250 77.500 L26.750 78.250 L26.250 81.250 L26.250 84.250 L27.000 85.250 L6.750 85.500 L4.500 84.500 L2.500 82.500 L1.750 80.750 L1.500 35.250 L1.750 13.500 L2.500 11.750 L4.750 9.500 L6.500 8.750 Z M391.750 2.250 L392.000 3.000 L392.000 91.000 L403.750 91.000 L404.000 64.750 L408.250 64.750 L412.500 64.000 L416.500 62.000 L418.000 60.750 L420.000 58.250 L422.000 53.500 L422.750 48.250 L422.750 18.250 L422.500 15.500 L421.250 10.750 L420.000 8.250 L418.000 5.750 L414.750 3.500 L413.500 3.250 L413.000 2.750 L409.500 2.000 Z M404.000 13.250 L408.250 13.500 L410.000 15.250 L410.750 17.750 L410.750 49.250 L410.250 51.250 L409.500 52.500 L408.250 53.500 L407.250 53.750 L403.750 53.750 Z M178.750 2.000 L178.750 91.000 L200.500 91.000 L200.500 80.000 L191.000 80.000 L190.500 79.500 L190.500 2.000 Z M140.000 2.000 L139.750 7.000 L139.250 9.000 L139.250 12.000 L138.500 16.750 L138.500 19.750 L138.000 21.500 L138.000 24.500 L137.250 29.500 L137.250 32.500 L136.750 34.500 L136.500 40.250 L136.000 42.000 L136.000 45.000 L135.500 47.250 L135.250 53.000 L134.750 54.750 L134.500 60.500 L133.500 67.500 L133.250 73.250 L132.750 75.250 L132.000 86.000 L131.500 88.000 L131.500 91.000 L143.000 91.000 L143.500 90.500 L143.500 85.500 L144.000 82.750 L144.250 74.500 L144.750 74.000 L151.500 74.000 L152.000 74.500 L152.250 81.750 L152.750 84.750 L152.750 89.250 L153.250 91.000 L165.500 90.750 L165.000 87.750 L164.750 82.000 L164.250 80.000 L164.250 76.750 L163.500 71.750 L163.500 68.750 L163.000 67.000 L162.750 61.000 L162.250 59.000 L162.250 56.000 L161.750 54.000 L161.500 48.000 L161.000 46.000 L161.000 43.000 L160.250 38.000 L160.250 35.000 L159.750 33.000 L159.750 30.000 L159.000 25.000 L159.000 22.000 L158.500 20.000 L158.250 14.000 L157.750 12.000 L157.750 9.000 L157.000 4.000 L157.000 2.000 Z M148.250 10.000 L148.500 19.500 L149.000 23.000 L149.000 28.750 L149.500 32.250 L149.750 43.500 L150.250 46.750 L150.250 51.500 L151.250 63.750 L150.750 64.250 L145.250 64.250 L144.750 63.750 L144.750 62.000 L145.250 59.000 L145.500 49.000 L146.000 45.000 L146.000 38.500 L146.500 34.500 L146.750 22.000 L147.250 18.250 L147.250 11.750 Z M98.750 2.000 L98.750 91.000 L114.750 91.000 L117.250 90.750 L121.250 89.500 L124.000 87.750 L127.000 84.250 L129.000 79.000 L129.500 75.000 L129.500 59.000 L129.000 55.250 L128.500 54.500 L128.250 53.000 L126.500 50.000 L123.500 47.250 L127.000 43.750 L127.750 42.500 L129.000 38.750 L129.500 34.500 L129.500 18.250 L129.000 14.000 L128.500 13.000 L128.250 11.250 L126.500 7.750 L123.250 4.500 L121.000 3.250 L120.250 3.250 L119.750 2.750 L116.250 2.000 Z M114.750 52.500 L116.250 53.500 L117.000 54.500 L117.500 56.500 L117.500 75.500 L117.000 77.500 L115.750 79.000 L114.000 79.750 L111.000 80.000 L111.000 52.250 Z M111.000 13.250 L115.250 13.500 L117.000 15.250 L117.500 17.250 L117.500 38.250 L117.000 40.500 L115.500 42.000 L114.250 42.500 L110.750 42.250 Z M59.000 2.000 L59.250 91.000 L69.250 90.750 L69.250 54.000 L69.000 44.500 L68.500 38.750 L68.500 30.750 L68.000 27.250 L68.250 23.250 L68.750 24.250 L69.000 28.750 L69.500 30.250 L69.750 34.000 L70.750 39.000 L71.000 43.000 L72.000 48.000 L72.250 52.000 L72.750 53.250 L73.000 57.250 L73.500 58.750 L73.500 60.750 L74.000 62.250 L74.250 66.250 L74.750 67.750 L74.750 69.750 L75.250 71.250 L75.500 75.250 L76.000 76.500 L76.250 80.500 L76.750 82.000 L76.750 84.000 L77.250 85.500 L77.750 90.500 L78.000 91.000 L92.750 90.750 L92.500 2.000 L82.250 2.000 L82.500 29.250 L83.250 38.250 L83.250 43.000 L83.750 45.750 L84.000 54.000 L84.500 56.500 L84.500 60.250 L85.250 65.750 L85.000 69.000 L84.250 65.500 L83.500 58.250 L83.000 56.750 L82.750 53.000 L82.250 51.750 L81.500 44.500 L81.000 43.250 L79.500 31.000 L79.000 29.500 L78.250 22.500 L77.750 21.250 L77.500 17.250 L77.000 16.000 L77.000 14.000 L76.500 12.500 L76.250 8.750 L75.750 7.500 L75.250 2.500 L75.000 2.000 Z"/>
  </g>
</svg>
